<svg width="62" height="63" viewBox="0 0 62 63" fill="none" xmlns="http://www.w3.org/2000/svg">
<path d="M27.74 0.817391C27.671 0.863197 27.05 0.977713 26.36 1.06933C23.554 1.38997 19.207 2.85578 16.585 4.36739C15.343 5.07739 12.859 6.77223 12.56 7.11578C12.491 7.18449 11.939 7.71126 11.295 8.28384C10.306 9.17707 9.36302 10.2535 7.54602 12.6355C6.92502 13.4371 5.31502 16.9184 4.87802 18.3384C4.41802 19.8958 4.30302 20.0561 3.91202 19.7126C3.72802 19.5751 3.52102 19.5064 3.42902 19.5751C3.22202 19.8042 3.36002 30.3626 3.59002 31.8284C3.72802 32.5384 3.91202 34.6455 4.05002 36.5006C4.46402 42.1577 5.82102 45.7535 9.17902 49.899C14.055 55.9226 23.646 60.0222 31.742 59.4955C37.584 59.129 42.989 57.2509 47.198 54.159C53.27 49.67 57.18 43.3945 57.18 38.1726C57.18 37.4167 57.387 35.6532 57.64 34.2561C58.284 30.8664 58.445 26.8355 58.123 23.2626C57.755 19.14 57.686 18.7506 57.272 18.9109C57.088 18.9796 56.95 18.9109 56.95 18.7735C56.95 17.9032 53.845 12.4293 52.35 10.7116C46.807 4.27578 39.447 0.8861 30.753 0.748681C29.143 0.725778 27.786 0.748681 27.74 0.817391ZM35.56 2.00836C45.703 3.77191 54.19 11.2842 56.582 20.6516C57.893 25.8277 57.456 32.1032 55.432 36.638C52.81 42.57 46.485 48.0209 39.493 50.4029C32.869 52.6703 24.819 52.0748 18.471 48.8913C16.24 47.769 12.79 45.3184 11.18 43.7151C6.60302 39.1345 4.51002 33.8667 4.51002 26.7667C4.51002 21.7967 5.52202 17.7887 7.73002 13.918C8.92602 11.8109 12.192 8.26094 14.262 6.79513C20.541 2.35191 27.924 0.702875 35.56 2.00836ZM5.75202 37.5771C5.98202 38.0122 6.02802 38.2871 5.86702 38.4474C5.56802 38.7451 6.09702 39.8445 7.24702 41.2645C8.00602 42.2035 8.07502 42.3867 8.12102 44.0129C8.14402 44.9519 8.19002 45.9826 8.23602 46.2803C8.28202 46.578 8.19002 46.8758 8.02902 46.9216C7.54602 47.0819 7.01702 45.9138 6.78702 44.1961C6.67202 43.28 6.41902 42.2493 6.23502 41.9058C6.02802 41.5622 5.91302 41.2187 5.93602 41.1042C6.00502 40.8751 5.43002 39.1574 5.17702 38.8596C5.08502 38.7222 5.03902 38.31 5.08502 37.9435C5.13102 37.5542 5.17702 37.1877 5.17702 37.0732C5.22302 36.7526 5.43002 36.9129 5.75202 37.5771ZM56.306 38.8138C56.306 40.1193 55.501 42.799 54.535 44.7C54.121 45.5245 53.063 47.1048 52.166 48.2042C47.911 53.5406 43.15 56.4264 35.836 58.1442C33.674 58.648 26.889 58.7167 25.21 58.2587C23.163 57.6861 20.679 56.8616 19.598 56.4035L18.494 55.9226L18.977 55.3271C19.529 54.6171 19.575 54.1361 19.161 53.1055C18.908 52.51 18.908 52.2351 19.138 51.6855C19.276 51.319 19.368 50.8838 19.299 50.7235C19.138 50.3113 19.207 50.3342 21.898 51.2274C24.911 52.2351 27.027 52.5558 31.075 52.5787C34.732 52.6016 36.434 52.3267 39.815 51.1816C46.416 48.9142 52.005 44.4251 55.409 38.6306C55.754 38.0351 56.099 37.6 56.168 37.6687C56.237 37.7374 56.306 38.2413 56.306 38.8138ZM10.168 45.7077C10.076 46.1658 9.86902 46.5322 9.70802 46.5322C9.11002 46.5322 8.88002 45.9367 9.01802 44.8374L9.17902 43.738L9.75402 44.3106C10.237 44.7916 10.283 45.0206 10.168 45.7077ZM12.33 46.9903C12.33 47.6545 11.824 47.9522 11.364 47.5171C10.927 47.1277 10.835 46.6238 11.088 45.9597C11.226 45.639 11.295 45.6619 11.778 46.0971C12.077 46.3719 12.33 46.7842 12.33 46.9903ZM9.91502 47.769C10.26 48.6164 10.168 49.2806 9.70802 49.2806C9.20202 49.2806 8.88002 48.7309 8.88002 47.8606C8.88002 46.7384 9.45502 46.6926 9.91502 47.769ZM13.963 47.8377C14.147 48.0438 14.285 48.6622 14.285 49.2119C14.308 50.1051 14.239 50.1738 13.825 50.0593C13.135 49.8532 13.089 49.7158 13.204 48.5248C13.296 47.3797 13.457 47.2193 13.963 47.8377ZM11.732 48.0438C11.939 48.1126 12.1 48.4332 12.1 48.7538C12.1 49.2119 12.008 49.3035 11.594 49.2348C11.203 49.189 11.042 48.9829 10.996 48.5248C10.927 47.9064 11.088 47.7919 11.732 48.0438ZM16.01 49.2348C16.424 49.5784 16.493 49.7845 16.355 50.38C16.079 51.7084 15.205 51.2045 15.205 49.6929C15.205 48.708 15.297 48.6622 16.01 49.2348ZM11.824 49.8761C12.215 49.9906 12.33 50.1967 12.33 50.8151C12.33 51.5022 12.261 51.5938 11.824 51.5251C11.272 51.4564 10.582 50.3571 10.835 49.9677C10.996 49.6929 11.111 49.6929 11.824 49.8761ZM18.54 51.0671C18.54 51.2732 18.379 51.6397 18.218 51.8458C17.942 52.2351 17.896 52.2351 17.528 51.8458C17.321 51.6167 17.16 51.09 17.16 50.7006V50.0135L17.85 50.3342C18.241 50.5403 18.54 50.8609 18.54 51.0671ZM14.101 51.0671C14.239 51.1587 14.4 51.5938 14.446 52.029C14.515 52.9222 14.101 53.1742 13.388 52.6474C13.066 52.4184 12.997 52.1664 13.135 51.6167C13.273 50.8838 13.572 50.7235 14.101 51.0671ZM16.102 52.1435C16.677 52.5787 16.447 54.159 15.826 54.0445C15.527 53.9987 15.412 53.678 15.366 52.8764C15.297 51.7313 15.412 51.6167 16.102 52.1435ZM18.54 53.6093C18.701 53.9071 18.701 54.2506 18.54 54.6629C18.356 55.1438 18.241 55.2126 17.873 55.0293C17.482 54.8003 17.091 53.5406 17.344 53.2887C17.62 53.0138 18.31 53.22 18.54 53.6093Z" fill="#FFFFFF"/>
<path d="M27.165 3.86356C25.463 4.11549 21.737 5.16904 20.196 5.81033C17.873 6.77226 15.435 8.4213 13.25 10.4826C10.421 13.1852 8.74202 16.0481 7.33902 20.5371C6.74102 22.4839 6.71802 22.8503 6.71802 26.8355C6.71802 30.7978 6.76402 31.21 7.36202 33.1339C10.168 42.3181 18.632 48.7539 29.005 49.6242C31.121 49.8074 34.64 49.4639 37.193 48.8226C43.886 47.1278 49.981 42.2952 53.017 36.2487C55.501 31.3474 55.731 24.4765 53.661 18.7507C52.764 16.3229 50.855 13.4829 48.44 11.0323C45.197 7.7113 42.322 6.01646 37.515 4.57356C35.445 3.95517 34.847 3.88646 31.535 3.81775C29.511 3.77194 27.556 3.79485 27.165 3.86356ZM37.262 5.37517C39.907 6.13097 44.093 8.19226 45.565 9.47485C47.175 10.849 49.82 13.689 50.671 14.9258C51.683 16.4374 52.925 18.9797 53.362 20.4684C54.259 23.5832 54.351 29.4465 53.523 32.5155C51.729 39.3178 45.197 45.639 37.745 47.7919C35.905 48.3187 32.386 48.7997 30.362 48.8226C28.43 48.8226 24.934 48.2729 23.025 47.6316C18.379 46.12 13.526 42.4784 10.835 38.5161C9.73102 36.8671 8.53502 34.2332 8.07502 32.4468C7.10902 28.5532 7.38502 22.1861 8.65002 19.3919C8.76502 19.14 9.08702 18.3613 9.34002 17.6742C10.237 15.2007 11.088 14.3532 11.617 15.361C11.801 15.7045 11.732 15.9794 11.295 16.6436C9.13302 19.8042 8.00602 25.4384 8.62702 29.8358C8.97202 32.1261 10.398 35.951 11.594 37.7145C15.205 43.0052 20.955 46.7155 27.28 47.7919C27.717 47.8607 29.074 47.9523 30.27 47.9523C32.225 47.9981 33.099 47.9294 35.422 47.54C36.802 47.311 40.229 46.0513 41.701 45.2268C44.047 43.9442 46.738 41.8142 48.026 40.2568C50.855 36.9129 52.051 34.3707 52.948 30.0419C53.086 29.2632 53.086 24.11 52.925 23.4C52.879 23.0794 52.741 22.461 52.672 22.0258C52.235 19.6668 50.464 16.2084 48.348 13.5745C45.818 10.4139 40.459 7.0471 36.48 6.10807C31.558 4.94001 28.476 5.03162 23.784 6.47452C21.829 7.07001 19.483 8.12356 18.609 8.78775C18.287 9.03968 17.919 8.12356 18.241 7.82581C18.954 7.11581 21.783 6.03936 24.75 5.32936C27.671 4.64226 27.579 4.64226 31.535 4.73388C34.663 4.77968 35.514 4.8713 37.262 5.37517ZM34.686 6.56614C43.058 8.32968 49.544 14.0784 51.706 21.6823C52.143 23.2168 52.212 24.0413 52.212 26.8355C52.189 29.7442 52.12 30.4084 51.568 32.1719C50.51 35.7219 48.946 38.2184 46.232 40.8294C42.368 44.4939 38.021 46.4865 32.593 47.0361C27.372 47.5858 22.013 46.0513 17.505 42.7074C12.284 38.8368 9.34002 33.1339 9.34002 26.8813C9.34002 21.3845 11.433 16.7352 15.895 12.269C18.793 9.38323 21.392 7.94033 25.785 6.79517C28.246 6.13097 32.248 6.03936 34.686 6.56614ZM17.85 8.74194C17.85 8.85646 17.551 9.1771 17.16 9.47485C16.792 9.74968 16.47 10.0932 16.47 10.2307C16.47 10.3681 16.102 10.8261 15.665 11.2613L14.86 12.04L14.331 11.5361L13.825 11.0094L14.745 10.2307C15.251 9.77259 15.941 9.36033 16.286 9.29162C16.631 9.20001 17.045 8.99388 17.183 8.83356C17.482 8.4671 17.85 8.4213 17.85 8.74194ZM13.135 13.4371C12.537 14.1242 11.962 14.6968 11.847 14.6968C11.364 14.6968 11.709 14.0555 12.859 12.8187C14.4 11.1239 14.653 11.6736 13.135 13.4371Z" fill="#FFFFFF"/>
<path d="M27.05 8.62739C25.003 9.06255 23.209 9.70384 21.231 10.7345C19.023 11.8567 15.09 15.7274 13.94 17.9032C11.594 22.3006 10.95 25.759 11.732 30.0419C12.744 35.5845 16.7 40.6003 22.082 43.0967C24.819 44.4022 26.314 44.7458 29.626 44.8603C35.951 45.1122 40.574 43.3945 44.76 39.2261C48.394 35.6532 49.82 32.4238 50.004 27.4538C50.119 24.2474 49.843 22.6213 48.739 19.9187C46.692 14.88 41.655 10.6429 35.675 8.94803C33.559 8.32965 29.12 8.16932 27.05 8.62739ZM34.18 9.52061C36.595 9.97868 38.895 10.8719 40.758 12.1087C41.287 12.4751 42.138 13.0248 42.644 13.3684C44.668 14.7196 47.359 18.4071 48.371 21.2013C49.291 23.7893 49.429 28.7822 48.647 31.3474C47.313 35.6303 44.783 38.8596 40.712 41.379C38.596 42.7303 36.434 43.4861 33.605 43.8755C29.396 44.4938 26.061 44.0587 22.565 42.4096C15.113 38.9513 11.157 31.4161 12.652 23.5603C13.549 18.9109 17.436 13.7348 21.76 11.4216C23.163 10.6429 26.084 9.65803 27.74 9.36029C29.028 9.13126 32.547 9.22287 34.18 9.52061Z" fill="#FFFFFF"/>
<path d="M26.521 11.811C26.084 12.2232 25.67 12.9103 25.601 13.2997C25.463 13.9868 25.417 14.0097 24.198 14.0097C22.611 14.0097 21.047 14.9945 20.035 16.6206L19.345 17.7429L19.368 27.1561C19.368 35.4929 19.414 36.661 19.759 37.4168C20.357 38.7452 21.415 39.7758 22.703 40.3255C23.807 40.8064 24.175 40.8293 30.845 40.8293C38.596 40.8293 38.711 40.8064 40.344 39.3406C41.954 37.8748 42.069 37.4168 42.161 31.9887C42.23 27.4539 42.207 27.1332 41.77 26.4003C41.379 25.8048 41.172 25.6674 40.712 25.759C40.413 25.8048 40.16 25.7819 40.16 25.7132C40.16 25.6445 41.195 24.591 42.483 23.4C45.979 20.1019 46.416 19.0484 44.875 17.6971C43.978 16.9184 43.288 16.8039 42.598 17.3306C42.184 17.6513 42.115 17.5826 41.517 16.5748C40.574 14.9258 39.102 14.0555 37.032 13.941C36.25 13.8722 36.112 13.7806 35.928 13.1393C35.675 12.2003 34.341 11.0322 33.582 11.0322C32.708 11.0322 31.328 12.4752 31.489 13.231C31.581 13.7577 31.535 13.8035 30.891 13.7348C30.362 13.689 30.178 13.5287 30.109 13.1393C29.994 12.2919 29.626 11.7422 28.89 11.3758C27.878 10.849 27.372 10.9635 26.521 11.811ZM28.959 12.3606C29.488 12.8187 29.465 13.4829 28.89 13.6661C28.476 13.8035 28.43 14.0097 28.43 15.4526C28.453 16.3687 28.591 17.5139 28.775 18.0177C29.074 18.8652 29.074 18.9568 28.614 19.4377C28.016 20.0561 27.257 20.1248 26.774 19.5522C26.521 19.2545 26.452 18.4987 26.475 16.071C26.521 12.8874 26.613 12.4293 27.372 12.0171C27.878 11.7422 28.338 11.8568 28.959 12.3606ZM34.709 12.3606C34.962 12.6584 35.077 13.5287 35.146 15.8877C35.215 18.659 35.169 19.0942 34.801 19.5064C34.203 20.1935 33.053 20.0561 32.57 19.2316C32.271 18.659 32.271 18.5674 32.616 18.3155C32.892 18.0864 33.007 17.5139 33.076 15.8877C33.168 13.8035 33.145 13.7348 32.639 13.5287C32.018 13.2997 31.949 12.8416 32.524 12.3606C33.306 11.6735 34.111 11.6735 34.709 12.3606ZM25.21 15.6129C25.21 16.1168 25.233 16.5977 25.279 16.6893C25.302 16.781 24.934 16.9184 24.451 17.01C23.991 17.0787 23.324 17.3764 23.025 17.6742L22.45 18.201V27.2935V36.3861L22.979 36.8442C24.014 37.8061 24.29 37.829 30.845 37.829C37.653 37.829 38.205 37.7374 38.803 36.6381C38.987 36.3174 39.056 34.8287 39.033 32.1719L38.987 28.1868L39.976 27.2935C40.528 26.7897 41.034 26.4003 41.149 26.3774C41.241 26.3774 41.31 28.6448 41.31 31.4161C41.31 35.9739 41.264 36.5693 40.873 37.3481C40.321 38.3787 39.01 39.5926 38.136 39.8216C37.791 39.9361 34.41 40.0048 30.615 40.0048C23.899 40.0048 23.692 39.9819 22.749 39.501C21.668 38.9284 20.817 37.8748 20.403 36.7068C20.242 36.18 20.15 33.111 20.15 27.1332C20.15 17.6971 20.196 17.3764 21.369 16.0939C22.036 15.3839 23.531 14.6968 24.474 14.6968C25.187 14.6968 25.21 14.7197 25.21 15.6129ZM31.88 15.8419V16.9871H30.73H29.58V15.8419V14.6968H30.73H31.88V15.8419ZM38.918 15.2464C39.976 15.7274 41.08 16.8268 41.08 17.3764C41.08 17.491 40.666 17.9261 40.16 18.3384C39.654 18.7277 39.24 18.9568 39.24 18.8422C39.24 18.7048 38.941 18.2468 38.55 17.8345C38.067 17.2848 37.584 17.01 36.94 16.8955C35.974 16.7352 35.836 16.4374 36.158 15.2006C36.342 14.5135 37.377 14.5364 38.918 15.2464ZM25.486 18.2239C25.348 18.9339 25.923 19.9416 26.751 20.4455C27.418 20.8577 27.625 20.9035 28.223 20.6516C29.189 20.2393 29.856 19.3232 29.764 18.4758C29.695 17.8116 29.718 17.7887 30.799 17.72L31.903 17.6513L31.765 18.43C31.627 19.0942 31.719 19.3461 32.294 19.9874C33.237 21.041 34.41 21.0639 35.353 20.0103C35.767 19.5522 36.02 19.0026 36.02 18.6132C36.02 17.3993 37.193 17.5139 38.435 18.8193C38.826 19.2316 39.332 19.621 39.562 19.7126C40.045 19.8958 40.091 19.8729 32.846 26.9271L29.833 29.8816L28.43 28.599C27.234 27.4768 26.889 27.2935 26.13 27.2935C25.21 27.2935 23.83 28.1868 23.83 28.7822C23.83 28.9426 23.692 29.1716 23.554 29.309C23.071 29.6755 23.14 19.0484 23.6 18.4758C24.29 17.6513 25.624 17.4681 25.486 18.2239ZM44.645 18.43C44.829 18.7048 44.99 19.0942 44.99 19.3232C44.99 19.8042 30.523 34.279 29.81 34.5081C29.419 34.6455 28.936 34.279 27.096 32.5384C25.877 31.3703 24.773 30.2252 24.658 30.019C24.221 29.1258 25.095 27.9806 26.222 27.9806C26.383 27.9806 27.257 28.6906 28.131 29.561L29.764 31.1413L36.595 24.4306C43.748 17.4222 43.886 17.3306 44.645 18.43ZM38.205 29.2174C38.297 29.79 38.32 31.5535 38.297 33.1339C38.182 37.2106 38.757 36.9129 30.753 36.9129C24.658 36.9129 24.359 36.89 23.876 36.4548C23.6 36.18 23.347 35.9052 23.347 35.8135C23.209 35.1493 23.232 30.019 23.37 29.9274C23.485 29.8587 23.761 30.1335 23.991 30.5229C24.681 31.5764 28.821 35.3097 29.327 35.3097C30.316 35.3097 31.098 34.7142 34.364 31.5306C36.227 29.7213 37.814 28.2097 37.906 28.2097C37.998 28.2097 38.136 28.6677 38.205 29.2174Z" fill="#FFFFFF"/>
<path d="M14.262 25.0949C13.871 25.2781 13.434 25.7132 13.273 26.1026C13.02 26.6981 13.043 26.9042 13.388 27.4997C14.216 28.8739 15.642 29.0342 16.677 27.8661C17.551 26.8584 17.574 26.5607 16.769 25.7132C15.987 24.8658 15.205 24.6826 14.262 25.0949ZM16.194 25.9652C16.355 26.1255 16.47 26.4461 16.47 26.721C16.47 27.4081 16.033 27.7516 15.205 27.7516C14.377 27.7516 13.94 27.4081 13.94 26.721C13.94 26.0339 14.377 25.6903 15.205 25.6903C15.596 25.6903 16.033 25.8049 16.194 25.9652Z" fill="#FFFFFF"/>
<path d="M46.14 24.9574C45.473 25.1635 44.53 26.24 44.53 26.7897C44.53 27.5455 45.772 28.6677 46.6 28.6677C47.543 28.6677 48.67 27.66 48.67 26.7897C48.67 25.6674 47.221 24.6368 46.14 24.9574ZM47.704 26.5606C47.796 27.4539 47.428 27.9806 46.738 27.9806C46.163 27.9806 45.22 27.2019 45.22 26.721C45.22 26.2171 46.186 25.6674 46.945 25.7361C47.543 25.8048 47.635 25.8964 47.704 26.5606Z" fill="#FFFFFF"/>
<path d="M58.33 19.14C58.33 19.3232 58.468 19.9416 58.652 20.4684C59.848 23.9497 60.055 25.2781 60.055 29.2403C60.055 40.9439 58.1 46.7842 52.212 52.6016C45.128 59.5871 35.261 62.8165 25.854 61.2132C19.713 60.1597 13.273 56.9532 9.409 53.0139C3.935 47.4484 2.118 42.799 1.52 32.7903C1.175 27.1561 1.52 23.5603 2.831 19.4377C2.9 19.2316 2.831 19.0484 2.693 19.0484C2.532 19.0484 2.486 19.14 2.555 19.2774C2.624 19.3919 2.601 19.5065 2.486 19.5065C2.118 19.5065 1.566 20.5142 1.428 21.4303C1.336 21.9113 1.221 22.3923 1.152 22.5068C0.715004 23.2397 0.462004 29.1258 0.715004 33.4774C0.991004 38.4932 1.267 40.1194 2.463 43.6465C3.82 47.6087 5.683 50.5174 8.972 53.7468C13.158 57.8694 19.713 61.0529 26.13 62.1065C28.959 62.5645 33.122 62.5416 35.905 62.0148C41.126 61.0529 46.899 58.3732 50.74 55.0981C56.766 49.9677 59.986 44.0358 60.492 37.1419C60.561 36.3174 60.722 34.4165 60.883 32.9048C61.274 28.8052 60.883 24.6139 59.802 21.3845C59.204 19.5981 58.33 18.2697 58.33 19.14Z" fill="#FFFFFF"/>
</svg>
