<?xml version="1.0" standalone="no"?>
<!DOCTYPE svg PUBLIC "-//W3C//DTD SVG 20010904//EN"
 "http://www.w3.org/TR/2001/REC-SVG-20010904/DTD/svg10.dtd">
<svg version="1.0" xmlns="http://www.w3.org/2000/svg"
 width="300.000000pt" height="310.000000pt" viewBox="0 0 300.000000 310.000000"
 preserveAspectRatio="xMidYMid meet">
<metadata>
Created by potrace 1.10, written by Peter Selinger 2001-2011
</metadata>
<g transform="translate(0.000000,310.000000) scale(0.100000,-0.100000)"
fill="#FFFFFF" stroke="none">
<path d="M1380 2846 c-3 -2 -30 -7 -60 -11 -122 -14 -311 -78 -425 -144 -54
-31 -162 -105 -175 -120 -3 -3 -27 -26 -55 -51 -43 -39 -84 -86 -163 -190 -27
-35 -97 -187 -116 -249 -20 -68 -25 -75 -42 -60 -8 6 -17 9 -21 6 -9 -10 -3
-471 7 -535 6 -31 14 -123 20 -204 18 -247 77 -404 223 -585 212 -263 629
-442 981 -419 254 16 489 98 672 233 264 196 434 470 434 698 0 33 9 110 20
171 28 148 35 324 21 480 -16 180 -19 197 -37 190 -8 -3 -14 0 -14 6 0 38
-135 277 -200 352 -241 281 -561 429 -939 435 -70 1 -129 0 -131 -3z m340 -52
c441 -77 810 -405 914 -814 57 -226 38 -500 -50 -698 -114 -259 -389 -497
-693 -601 -288 -99 -638 -73 -914 66 -97 49 -247 156 -317 226 -199 200 -290
430 -290 740 0 217 44 392 140 561 52 92 194 247 284 311 273 194 594 266 926
209z m-1296 -1553 c10 -19 12 -31 5 -38 -13 -13 10 -61 60 -123 33 -41 36 -49
38 -120 1 -41 3 -86 5 -99 2 -13 -2 -26 -9 -28 -21 -7 -44 44 -54 119 -5 40
-16 85 -24 100 -9 15 -14 30 -13 35 3 10 -22 85 -33 98 -4 6 -6 24 -4 40 2 17
4 33 4 38 2 14 11 7 25 -22z m2198 -54 c0 -57 -35 -174 -77 -257 -18 -36 -64
-105 -103 -153 -185 -233 -392 -359 -710 -434 -94 -22 -389 -25 -462 -5 -89
25 -197 61 -244 81 l-48 21 21 26 c24 31 26 52 8 97 -11 26 -11 38 -1 62 6 16
10 35 7 42 -7 18 -4 17 113 -22 131 -44 223 -58 399 -59 159 -1 233 11 380 61
287 99 530 295 678 548 15 26 30 45 33 42 3 -3 6 -25 6 -50z m-2006 -301 c-4
-20 -13 -36 -20 -36 -26 0 -36 26 -30 74 l7 48 25 -25 c21 -21 23 -31 18 -61z
m94 -56 c0 -29 -22 -42 -42 -23 -19 17 -23 39 -12 68 6 14 9 13 30 -6 13 -12
24 -30 24 -39z m-105 -34 c15 -37 11 -66 -9 -66 -22 0 -36 24 -36 62 0 49 25
51 45 4z m176 -3 c8 -9 14 -36 14 -60 1 -39 -2 -42 -20 -37 -30 9 -32 15 -27
67 4 50 11 57 33 30z m-97 -9 c9 -3 16 -17 16 -31 0 -20 -4 -24 -22 -21 -17 2
-24 11 -26 31 -3 27 4 32 32 21z m186 -52 c18 -15 21 -24 15 -50 -12 -58 -50
-36 -50 30 0 43 4 45 35 20z m-182 -28 c17 -5 22 -14 22 -41 0 -30 -3 -34 -22
-31 -24 3 -54 51 -43 68 7 12 12 12 43 4z m292 -52 c0 -9 -7 -25 -14 -34 -12
-17 -14 -17 -30 0 -9 10 -16 33 -16 50 l0 30 30 -14 c17 -9 30 -23 30 -32z
m-193 0 c6 -4 13 -23 15 -42 3 -39 -15 -50 -46 -27 -14 10 -17 21 -11 45 6 32
19 39 42 24z m87 -47 c25 -19 15 -88 -12 -83 -13 2 -18 16 -20 51 -3 50 2 55
32 32z m106 -64 c7 -13 7 -28 0 -46 -8 -21 -13 -24 -29 -16 -17 10 -34 65 -23
76 12 12 42 3 52 -14z"/>
<path d="M1355 2713 c-74 -11 -236 -57 -303 -85 -101 -42 -207 -114 -302 -204
-123 -118 -196 -243 -257 -439 -26 -85 -27 -101 -27 -275 0 -173 2 -191 28
-275 122 -401 490 -682 941 -720 92 -8 245 7 356 35 291 74 556 285 688 549
108 214 118 514 28 764 -39 106 -122 230 -227 337 -141 145 -266 219 -475 282
-90 27 -116 30 -260 33 -88 2 -173 1 -190 -2z m439 -66 c115 -33 297 -123 361
-179 70 -60 185 -184 222 -238 44 -66 98 -177 117 -242 39 -136 43 -392 7
-526 -78 -297 -362 -573 -686 -667 -80 -23 -233 -44 -321 -45 -84 0 -236 24
-319 52 -202 66 -413 225 -530 398 -48 72 -100 187 -120 265 -42 170 -30 448
25 570 5 11 19 45 30 75 39 108 76 145 99 101 8 -15 5 -27 -14 -56 -94 -138
-143 -384 -116 -576 15 -100 77 -267 129 -344 157 -231 407 -393 682 -440 19
-3 78 -7 130 -7 85 -2 123 1 224 18 60 10 209 65 273 101 102 56 219 149 275
217 123 146 175 257 214 446 6 34 6 259 -1 290 -2 14 -8 41 -11 60 -19 103
-96 254 -188 369 -110 138 -343 285 -516 326 -214 51 -348 47 -552 -16 -85
-26 -187 -72 -225 -101 -14 -11 -30 29 -16 42 31 31 154 78 283 109 127 30
123 30 295 26 136 -2 173 -6 249 -28z m-112 -52 c364 -77 646 -328 740 -660
19 -67 22 -103 22 -225 -1 -127 -4 -156 -28 -233 -46 -155 -114 -264 -232
-378 -168 -160 -357 -247 -593 -271 -227 -24 -460 43 -656 189 -227 169 -355
418 -355 691 0 240 91 443 285 638 126 126 239 189 430 239 107 29 281 33 387
10z m-732 -95 c0 -5 -13 -19 -30 -32 -16 -12 -30 -27 -30 -33 0 -6 -16 -26
-35 -45 l-35 -34 -23 22 -22 23 40 34 c22 20 52 38 67 41 15 4 33 13 39 20 13
16 29 18 29 4z m-205 -205 c-26 -30 -51 -55 -56 -55 -21 0 -6 28 44 82 67 74
78 50 12 -27z"/>
<path d="M1350 2505 c-89 -19 -167 -47 -253 -92 -96 -49 -267 -218 -317 -313
-102 -192 -130 -343 -96 -530 44 -242 216 -461 450 -570 119 -57 184 -72 328
-77 275 -11 476 64 658 246 158 156 220 297 228 514 5 140 -7 211 -55 329 -89
220 -308 405 -568 479 -92 27 -285 34 -375 14z m310 -39 c105 -20 205 -59 286
-113 23 -16 60 -40 82 -55 88 -59 205 -220 249 -342 40 -113 46 -331 12 -443
-58 -187 -168 -328 -345 -438 -92 -59 -186 -92 -309 -109 -183 -27 -328 -8
-480 64 -324 151 -496 480 -431 823 39 203 208 429 396 530 61 34 188 77 260
90 56 10 209 6 280 -7z"/>
<path d="M1327 2366 c-19 -18 -37 -48 -40 -65 -6 -30 -8 -31 -61 -31 -69 0
-137 -43 -181 -114 l-30 -49 1 -411 c0 -364 2 -415 17 -448 26 -58 72 -103
128 -127 48 -21 64 -22 354 -22 337 0 342 1 413 65 70 64 75 84 79 321 3 198
2 212 -17 244 -17 26 -26 32 -46 28 -13 -2 -24 -1 -24 2 0 3 45 49 101 101
152 144 171 190 104 249 -39 34 -69 39 -99 16 -18 -14 -21 -11 -47 33 -41 72
-105 110 -195 115 -34 3 -40 7 -48 35 -11 41 -69 92 -102 92 -38 0 -98 -63
-91 -96 4 -23 2 -25 -26 -22 -23 2 -31 9 -34 26 -5 37 -21 61 -53 77 -44 23
-66 18 -103 -19z m106 -24 c23 -20 22 -49 -3 -57 -18 -6 -20 -15 -20 -78 1
-40 7 -90 15 -112 13 -37 13 -41 -7 -62 -26 -27 -59 -30 -80 -5 -11 13 -14 46
-13 152 2 139 6 159 39 177 22 12 42 7 69 -15z m250 0 c11 -13 16 -51 19 -154
3 -121 1 -140 -15 -158 -26 -30 -76 -24 -97 12 -13 25 -13 29 2 40 12 10 17
35 20 106 4 91 3 94 -19 103 -27 10 -30 30 -5 51 34 30 69 30 95 0z m-413
-142 c0 -22 1 -43 3 -47 1 -4 -15 -10 -36 -14 -20 -3 -49 -16 -62 -29 l-25
-23 0 -397 0 -397 23 -20 c45 -42 57 -43 342 -43 296 0 320 4 346 52 8 14 11
79 10 195 l-2 174 43 39 c24 22 46 39 51 40 4 0 7 -99 7 -220 0 -199 -2 -225
-19 -259 -24 -45 -81 -98 -119 -108 -15 -5 -162 -8 -327 -8 -292 0 -301 1
-342 22 -47 25 -84 71 -102 122 -7 23 -11 157 -11 418 0 412 2 426 53 482 29
31 94 61 135 61 31 0 32 -1 32 -40z m290 -10 l0 -50 -50 0 -50 0 0 50 0 50 50
0 50 0 0 -50z m306 26 c46 -21 94 -69 94 -93 0 -5 -18 -24 -40 -42 -22 -17
-40 -27 -40 -22 0 6 -13 26 -30 44 -21 24 -42 36 -70 41 -42 7 -48 20 -34 74
8 30 53 29 120 -2z m-584 -130 c-6 -31 19 -75 55 -97 29 -18 38 -20 64 -9 42
18 71 58 67 95 -3 29 -2 30 45 33 l48 3 -6 -34 c-6 -29 -2 -40 23 -68 41 -46
92 -47 133 -1 18 20 29 44 29 61 0 53 51 48 105 -9 17 -18 39 -35 49 -39 21
-8 23 -7 -292 -315 l-131 -129 -61 56 c-52 49 -67 57 -100 57 -40 0 -100 -39
-100 -65 0 -7 -6 -17 -12 -23 -21 -16 -18 448 2 473 30 36 88 44 82 11z m833
-9 c8 -12 15 -29 15 -39 0 -21 -629 -653 -660 -663 -17 -6 -38 10 -118 86 -53
51 -101 101 -106 110 -19 39 19 89 68 89 7 0 45 -31 83 -69 l71 -69 297 293
c311 306 317 310 350 262z m-280 -471 c4 -25 5 -102 4 -171 -5 -178 20 -165
-328 -165 -265 0 -278 1 -299 20 -12 12 -23 24 -23 28 -6 29 -5 253 1 257 5 3
17 -9 27 -26 30 -46 210 -209 232 -209 43 0 77 26 219 165 81 79 150 145 154
145 4 0 10 -20 13 -44z"/>
<path d="M794 1786 c-17 -8 -36 -27 -43 -44 -11 -26 -10 -35 5 -61 36 -60 98
-67 143 -16 38 44 39 57 4 94 -34 37 -68 45 -109 27z m84 -38 c7 -7 12 -21 12
-33 0 -30 -19 -45 -55 -45 -36 0 -55 15 -55 45 0 30 19 45 55 45 17 0 36 -5
43 -12z"/>
<path d="M2180 1792 c-29 -9 -70 -56 -70 -80 0 -33 54 -82 90 -82 41 0 90 44
90 82 0 49 -63 94 -110 80z m68 -70 c4 -39 -12 -62 -42 -62 -25 0 -66 34 -66
55 0 22 42 46 75 43 26 -3 30 -7 33 -36z"/>
<path d="M2710 2046 c0 -8 6 -35 14 -58 52 -152 61 -210 61 -383 0 -511 -85
-766 -341 -1020 -308 -305 -737 -446 -1146 -376 -267 46 -547 186 -715 358
-238 243 -317 446 -343 883 -15 246 0 403 57 583 3 9 0 17 -6 17 -7 0 -9 -4
-6 -10 3 -5 2 -10 -3 -10 -16 0 -40 -44 -46 -84 -4 -21 -9 -42 -12 -47 -19
-32 -30 -289 -19 -479 12 -219 24 -290 76 -444 59 -173 140 -300 283 -441 182
-180 467 -319 746 -365 123 -20 304 -19 425 4 227 42 478 159 645 302 262 224
402 483 424 784 3 36 10 119 17 185 17 179 0 362 -47 503 -26 78 -64 136 -64
98z"/>
</g>
</svg>
